<?xml version="1.0" encoding="UTF-8" standalone="no"?>
<!DOCTYPE svg PUBLIC "-//W3C//DTD SVG 1.1//EN"
 "http://www.w3.org/Graphics/SVG/1.1/DTD/svg11.dtd">
<!-- Generated by graphviz version 2.24.0 (20090616.2323)
 -->
<!-- Title: _anonymous_0 Pages: 1 -->
<svg width="1722pt" height="1030pt"
 viewBox="0.00 0.00 1722.00 1029.71" xmlns="http://www.w3.org/2000/svg" xmlns:xlink="http://www.w3.org/1999/xlink">
<g id="graph1" class="graph" transform="scale(1 1) rotate(0) translate(4 1025.71)">
<title>_anonymous_0</title>
<polygon fill="white" stroke="white" points="-4,5 -4,-1025.71 1719,-1025.71 1719,5 -4,5"/>
<text text-anchor="middle" x="857" y="-217.4" font-family="Times,serif" font-size="14.00">Model:</text>
<text text-anchor="middle" x="857" y="-203.4" font-family="Times,serif" font-size="14.00">(Unknown)</text>
<text text-anchor="middle" x="857" y="-173.4" font-family="Times,serif" font-size="14.00">Namespaces:</text>
<text text-anchor="middle" x="857" y="-159.4" font-family="Times,serif" font-size="14.00">rdf: http://www.w3.org/1999/02/22&#45;rdf&#45;syntax&#45;ns#</text>
<text text-anchor="middle" x="857" y="-145.4" font-family="Times,serif" font-size="14.00">http://phylotastic.org/terms/tnrs&#45;instance.rdf#</text>
<text text-anchor="middle" x="857" y="-131.4" font-family="Times,serif" font-size="14.00">dc: http://purl.org/dc/elements/1.1/</text>
<text text-anchor="middle" x="857" y="-117.4" font-family="Times,serif" font-size="14.00">tnrs: http://phylotastic.org/terms/tnrs.rdf#</text>
<text text-anchor="middle" x="857" y="-103.4" font-family="Times,serif" font-size="14.00">tc: http://rs.tdwg.org/ontology/voc/TaxonConcept#</text>
<text text-anchor="middle" x="857" y="-89.4" font-family="Times,serif" font-size="14.00">dcterms: http://purl.org/dc/terms/</text>
<text text-anchor="middle" x="857" y="-75.4" font-family="Times,serif" font-size="14.00">ncbitax: http://www.ncbi.nlm.nih.gov/taxonomy/</text>
<text text-anchor="middle" x="857" y="-61.4" font-family="Times,serif" font-size="14.00">tropicos: http://www.tropicos.org/Name/</text>
<text text-anchor="middle" x="857" y="-47.4" font-family="Times,serif" font-size="14.00">obo: http://purl.obolibrary.org/obo/</text>
<text text-anchor="middle" x="857" y="-33.4" font-family="Times,serif" font-size="14.00">rdfs: http://www.w3.org/2000/01/rdf&#45;schema#</text>
<text text-anchor="middle" x="857" y="-19.4" font-family="Times,serif" font-size="14.00">owl: http://www.w3.org/2002/07/owl#</text>
<text text-anchor="middle" x="857" y="-5.4" font-family="Times,serif" font-size="14.00">xsd: http://www.w3.org/2001/XMLSchema#</text>
<!-- B_:genid1 -->
<g id="node1" class="node"><title>B_:genid1</title>
<ellipse fill="none" stroke="green" cx="558" cy="-841.705" rx="18" ry="18"/>
</g>
<!-- LMegalachne -->
<g id="node3" class="node"><title>LMegalachne</title>
<polygon fill="none" stroke="black" points="895.5,-985.705 895.5,-1021.71 982.5,-1021.71 982.5,-985.705 895.5,-985.705"/>
<text text-anchor="middle" x="939" y="-998.105" font-family="Times,serif" font-size="14.00">Megalachne</text>
</g>
<!-- B_:genid1&#45;&gt;LMegalachne -->
<g id="edge2" class="edge"><title>B_:genid1&#45;&gt;LMegalachne</title>
<path fill="none" stroke="black" d="M569.573,-856.069C587.31,-877.165 623.257,-916.433 662,-938.705 732.496,-979.233 826.866,-994.516 885.258,-1000.26"/>
<polygon fill="black" stroke="black" points="885.094,-1003.76 895.373,-1001.2 885.738,-996.793 885.094,-1003.76"/>
<text text-anchor="middle" x="716" y="-979.105" font-family="Times,serif" font-size="14.00">tnrs:acceptedName</text>
</g>
<!-- LPantathera -->
<g id="node5" class="node"><title>LPantathera</title>
<polygon fill="none" stroke="black" points="901.5,-931.705 901.5,-967.705 976.5,-967.705 976.5,-931.705 901.5,-931.705"/>
<text text-anchor="middle" x="939" y="-944.105" font-family="Times,serif" font-size="14.00">Pantathera</text>
</g>
<!-- B_:genid1&#45;&gt;LPantathera -->
<g id="edge4" class="edge"><title>B_:genid1&#45;&gt;LPantathera</title>
<path fill="none" stroke="black" d="M573.768,-850.562C593.77,-861.493 629.569,-880.062 662,-891.705 739.925,-919.683 835.284,-935.959 891.36,-943.816"/>
<polygon fill="black" stroke="black" points="890.978,-947.296 901.361,-945.186 891.929,-940.361 890.978,-947.296"/>
<text text-anchor="middle" x="716" y="-922.105" font-family="Times,serif" font-size="14.00">tnrs:matchedName</text>
</g>
<!-- L0.47790686999749 -->
<g id="node7" class="node"><title>L0.47790686999749</title>
<polygon fill="none" stroke="black" points="874,-877.705 874,-913.705 1004,-913.705 1004,-877.705 874,-877.705"/>
<text text-anchor="middle" x="939" y="-890.105" font-family="Times,serif" font-size="14.00">0.47790686999749</text>
</g>
<!-- B_:genid1&#45;&gt;L0.47790686999749 -->
<g id="edge6" class="edge"><title>B_:genid1&#45;&gt;L0.47790686999749</title>
<path fill="none" stroke="black" d="M575.999,-845.058C596.705,-848.859 631.744,-855.123 662,-859.705 730.159,-870.028 808.033,-879.987 863.817,-886.803"/>
<polygon fill="black" stroke="black" points="863.619,-890.305 873.968,-888.039 864.464,-883.356 863.619,-890.305"/>
<text text-anchor="middle" x="716" y="-875.105" font-family="Times,serif" font-size="14.00">tnrs:score</text>
</g>
<!-- Rhttp://tnrs.iplantcollaborative.org/ -->
<g id="node9" class="node"><title>Rhttp://tnrs.iplantcollaborative.org/</title>
<ellipse fill="none" stroke="blue" cx="939" cy="-622.705" rx="128.994" ry="18"/>
<text text-anchor="middle" x="939" y="-617.105" font-family="Times,serif" font-size="14.00">http://tnrs.iplantcollaborative.org/</text>
</g>
<!-- B_:genid1&#45;&gt;Rhttp://tnrs.iplantcollaborative.org/ -->
<g id="edge8" class="edge"><title>B_:genid1&#45;&gt;Rhttp://tnrs.iplantcollaborative.org/</title>
<path fill="none" stroke="black" d="M565.656,-825.267C580.101,-796.184 614.269,-735.89 662,-705.705 703.479,-679.475 722.774,-696.055 770,-682.705 809.676,-671.49 853.527,-655.822 886.617,-643.31"/>
<polygon fill="black" stroke="black" points="887.987,-646.533 896.087,-639.704 885.496,-639.991 887.987,-646.533"/>
<text text-anchor="middle" x="716" y="-707.105" font-family="Times,serif" font-size="14.00">tnrs:usedSource</text>
</g>
<!-- Rtropicos:40015658 -->
<g id="node11" class="node"><title>Rtropicos:40015658</title>
<ellipse fill="none" stroke="blue" cx="939" cy="-841.705" rx="78.9595" ry="18"/>
<text text-anchor="middle" x="939" y="-836.105" font-family="Times,serif" font-size="14.00">tropicos:40015658</text>
</g>
<!-- B_:genid1&#45;&gt;Rtropicos:40015658 -->
<g id="edge10" class="edge"><title>B_:genid1&#45;&gt;Rtropicos:40015658</title>
<path fill="none" stroke="black" d="M576.12,-841.705C624.441,-841.705 758.881,-841.705 849.839,-841.705"/>
<polygon fill="black" stroke="black" points="849.879,-845.206 859.879,-841.705 849.879,-838.206 849.879,-845.206"/>
<text text-anchor="middle" x="716" y="-843.105" font-family="Times,serif" font-size="14.00">tc:toTaxon</text>
</g>
<!-- Rtnrs:Match -->
<g id="node13" class="node"><title>Rtnrs:Match</title>
<ellipse fill="none" stroke="blue" cx="939" cy="-787.705" rx="46.877" ry="18"/>
<text text-anchor="middle" x="939" y="-782.105" font-family="Times,serif" font-size="14.00">tnrs:Match</text>
</g>
<!-- B_:genid1&#45;&gt;Rtnrs:Match -->
<g id="edge12" class="edge"><title>B_:genid1&#45;&gt;Rtnrs:Match</title>
<path fill="none" stroke="black" d="M575.999,-838.353C596.705,-834.552 631.744,-828.288 662,-823.705 738.51,-812.118 827.26,-800.989 883.267,-794.249"/>
<polygon fill="black" stroke="black" points="883.82,-797.708 893.333,-793.042 882.987,-790.757 883.82,-797.708"/>
<text text-anchor="middle" x="716" y="-825.105" font-family="Times,serif" font-size="14.00">rdf:type</text>
</g>
<!-- L2 -->
<g id="node27" class="node"><title>L2</title>
<polygon fill="none" stroke="black" points="1440,-717.705 1440,-753.705 1494,-753.705 1494,-717.705 1440,-717.705"/>
<text text-anchor="middle" x="1467" y="-730.105" font-family="Times,serif" font-size="14.00">2</text>
</g>
<!-- Rhttp://tnrs.iplantcollaborative.org/&#45;&gt;L2 -->
<g id="edge52" class="edge"><title>Rhttp://tnrs.iplantcollaborative.org/&#45;&gt;L2</title>
<path fill="none" stroke="black" d="M989.216,-639.384C1045.01,-657.354 1138.06,-685.661 1220,-702.705 1293.59,-718.014 1381.07,-727.744 1429.68,-732.416"/>
<polygon fill="black" stroke="black" points="1429.45,-735.909 1439.74,-733.363 1430.11,-728.94 1429.45,-735.909"/>
<text text-anchor="middle" x="1155" y="-698.105" font-family="Times,serif" font-size="14.00">tnrs:hasRank</text>
</g>
<!-- L200: OK -->
<g id="node49" class="node"><title>L200: OK</title>
<polygon fill="none" stroke="black" points="1434.5,-485.705 1434.5,-521.705 1499.5,-521.705 1499.5,-485.705 1434.5,-485.705"/>
<text text-anchor="middle" x="1467" y="-498.105" font-family="Times,serif" font-size="14.00">200: OK</text>
</g>
<!-- Rhttp://tnrs.iplantcollaborative.org/&#45;&gt;L200: OK -->
<g id="edge54" class="edge"><title>Rhttp://tnrs.iplantcollaborative.org/&#45;&gt;L200: OK</title>
<path fill="none" stroke="black" d="M1046.43,-612.602C1061.63,-608.608 1076.62,-603.147 1090,-595.705 1100.45,-589.894 1098.01,-582.285 1108,-575.705 1151.9,-546.787 1168.84,-549.789 1220,-537.705 1290.6,-521.031 1374.61,-511.617 1424.22,-507.104"/>
<polygon fill="black" stroke="black" points="1424.62,-510.583 1434.27,-506.215 1424,-503.61 1424.62,-510.583"/>
<text text-anchor="middle" x="1155" y="-577.105" font-family="Times,serif" font-size="14.00">tnrs:sourceStatus</text>
</g>
<!-- LThe iPlant Collaborative TNRS provides parsing and fuzzy matching for plant taxa. -->
<g id="node51" class="node"><title>LThe iPlant Collaborative TNRS provides parsing and fuzzy matching for plant taxa.</title>
<polygon fill="none" stroke="black" points="1220,-603.705 1220,-639.705 1714,-639.705 1714,-603.705 1220,-603.705"/>
<text text-anchor="middle" x="1467" y="-616.105" font-family="Times,serif" font-size="14.00">The iPlant Collaborative TNRS provides parsing and fuzzy matching for plant taxa.</text>
</g>
<!-- Rhttp://tnrs.iplantcollaborative.org/&#45;&gt;LThe iPlant Collaborative TNRS provides parsing and fuzzy matching for plant taxa. -->
<g id="edge56" class="edge"><title>Rhttp://tnrs.iplantcollaborative.org/&#45;&gt;LThe iPlant Collaborative TNRS provides parsing and fuzzy matching for plant taxa.</title>
<path fill="none" stroke="black" d="M1068.5,-622.46C1111.35,-622.379 1160.64,-622.286 1209.63,-622.193"/>
<polygon fill="black" stroke="black" points="1209.76,-625.693 1219.75,-622.174 1209.75,-618.693 1209.76,-625.693"/>
<text text-anchor="middle" x="1155" y="-623.105" font-family="Times,serif" font-size="14.00">dc:description</text>
</g>
<!-- LiPlant Collaborative TNRS v3.0 -->
<g id="node53" class="node"><title>LiPlant Collaborative TNRS v3.0</title>
<polygon fill="none" stroke="black" points="1367.5,-657.705 1367.5,-693.705 1566.5,-693.705 1566.5,-657.705 1367.5,-657.705"/>
<text text-anchor="middle" x="1467" y="-670.105" font-family="Times,serif" font-size="14.00">iPlant Collaborative TNRS v3.0</text>
</g>
<!-- Rhttp://tnrs.iplantcollaborative.org/&#45;&gt;LiPlant Collaborative TNRS v3.0 -->
<g id="edge58" class="edge"><title>Rhttp://tnrs.iplantcollaborative.org/&#45;&gt;LiPlant Collaborative TNRS v3.0</title>
<path fill="none" stroke="black" d="M1044.03,-633.275C1065.21,-635.405 1087.31,-637.628 1108,-639.705 1191.46,-648.088 1285.84,-657.552 1356.88,-664.671"/>
<polygon fill="black" stroke="black" points="1356.89,-668.19 1367.18,-665.705 1357.58,-661.225 1356.89,-668.19"/>
<text text-anchor="middle" x="1155" y="-649.105" font-family="Times,serif" font-size="14.00">dc:title</text>
</g>
<!-- Rtnrs:ResolutionSource -->
<g id="node55" class="node"><title>Rtnrs:ResolutionSource</title>
<ellipse fill="none" stroke="blue" cx="1467" cy="-564.705" rx="89.0663" ry="18"/>
<text text-anchor="middle" x="1467" y="-559.105" font-family="Times,serif" font-size="14.00">tnrs:ResolutionSource</text>
</g>
<!-- Rhttp://tnrs.iplantcollaborative.org/&#45;&gt;Rtnrs:ResolutionSource -->
<g id="edge60" class="edge"><title>Rhttp://tnrs.iplantcollaborative.org/&#45;&gt;Rtnrs:ResolutionSource</title>
<path fill="none" stroke="black" d="M1039.53,-611.341C1062.06,-608.811 1085.84,-606.154 1108,-603.705 1200.1,-593.526 1305.51,-582.101 1378.17,-574.262"/>
<polygon fill="black" stroke="black" points="1378.64,-577.732 1388.2,-573.18 1377.88,-570.772 1378.64,-577.732"/>
<text text-anchor="middle" x="1155" y="-605.105" font-family="Times,serif" font-size="14.00">rdf:type</text>
</g>
<!-- B_:genid2 -->
<g id="node14" class="node"><title>B_:genid2</title>
<ellipse fill="none" stroke="green" cx="558" cy="-531.705" rx="18" ry="18"/>
</g>
<!-- B_:genid2&#45;&gt;Rtnrs:Match -->
<g id="edge24" class="edge"><title>B_:genid2&#45;&gt;Rtnrs:Match</title>
<path fill="none" stroke="black" d="M572.175,-543.065C590.161,-557.902 621.54,-585.236 644,-612.705 653.602,-624.449 649.588,-632.983 662,-641.705 702.153,-669.923 725.179,-644.717 770,-664.705 826.283,-689.806 882.264,-735.732 913.575,-763.808"/>
<polygon fill="black" stroke="black" points="911.605,-766.747 921.361,-770.88 916.312,-761.565 911.605,-766.747"/>
<text text-anchor="middle" x="716" y="-666.105" font-family="Times,serif" font-size="14.00">rdf:type</text>
</g>
<!-- LPanthera tigris -->
<g id="node16" class="node"><title>LPanthera tigris</title>
<polygon fill="none" stroke="black" points="889.5,-550.705 889.5,-586.705 988.5,-586.705 988.5,-550.705 889.5,-550.705"/>
<text text-anchor="middle" x="939" y="-563.105" font-family="Times,serif" font-size="14.00">Panthera tigris</text>
</g>
<!-- B_:genid2&#45;&gt;LPanthera tigris -->
<g id="edge14" class="edge"><title>B_:genid2&#45;&gt;LPanthera tigris</title>
<path fill="none" stroke="black" d="M575.992,-534.657C596.691,-537.97 631.724,-543.323 662,-546.705 736.697,-555.05 823.073,-561.386 879.244,-565.068"/>
<polygon fill="black" stroke="black" points="879.166,-568.57 889.371,-565.724 879.619,-561.585 879.166,-568.57"/>
<text text-anchor="middle" x="716" y="-558.105" font-family="Times,serif" font-size="14.00">tnrs:acceptedName</text>
</g>
<!-- B_:genid2&#45;&gt;LPanthera tigris -->
<g id="edge16" class="edge"><title>B_:genid2&#45;&gt;LPanthera tigris</title>
<path fill="none" stroke="black" d="M576.033,-531.027C596.77,-530.285 631.838,-529.14 662,-528.705 709.995,-528.013 723.535,-516.665 770,-528.705 778.859,-531.001 779.408,-535.554 788,-538.705 817.164,-549.404 850.971,-556.572 879.195,-561.21"/>
<polygon fill="black" stroke="black" points="878.898,-564.706 889.321,-562.806 879.988,-557.792 878.898,-564.706"/>
<text text-anchor="middle" x="716" y="-530.105" font-family="Times,serif" font-size="14.00">tnrs:matchedName</text>
</g>
<!-- L1.0 -->
<g id="node19" class="node"><title>L1.0</title>
<polygon fill="none" stroke="black" points="912,-493.705 912,-529.705 966,-529.705 966,-493.705 912,-493.705"/>
<text text-anchor="middle" x="939" y="-506.105" font-family="Times,serif" font-size="14.00">1.0</text>
</g>
<!-- B_:genid2&#45;&gt;L1.0 -->
<g id="edge18" class="edge"><title>B_:genid2&#45;&gt;L1.0</title>
<path fill="none" stroke="black" d="M574.48,-524.071C594.617,-515.2 629.968,-501.093 662,-495.705 746.838,-481.437 848.118,-494.864 901.609,-504.288"/>
<polygon fill="black" stroke="black" points="901.187,-507.769 911.651,-506.11 902.436,-500.881 901.187,-507.769"/>
<text text-anchor="middle" x="716" y="-497.105" font-family="Times,serif" font-size="14.00">tnrs:score</text>
</g>
<!-- Rhttp://www.ncbi.nlm.nih.gov/taxonomy -->
<g id="node21" class="node"><title>Rhttp://www.ncbi.nlm.nih.gov/taxonomy</title>
<ellipse fill="none" stroke="blue" cx="939" cy="-403.705" rx="150.971" ry="18"/>
<text text-anchor="middle" x="939" y="-398.105" font-family="Times,serif" font-size="14.00">http://www.ncbi.nlm.nih.gov/taxonomy</text>
</g>
<!-- B_:genid2&#45;&gt;Rhttp://www.ncbi.nlm.nih.gov/taxonomy -->
<g id="edge20" class="edge"><title>B_:genid2&#45;&gt;Rhttp://www.ncbi.nlm.nih.gov/taxonomy</title>
<path fill="none" stroke="black" d="M572.455,-520.707C590.184,-506.902 620.743,-482.069 644,-457.705 652.963,-448.316 650.666,-441.032 662,-434.705 698.673,-414.235 742.318,-404.082 783.993,-399.603"/>
<polygon fill="black" stroke="black" points="784.359,-403.084 793.974,-398.633 783.682,-396.117 784.359,-403.084"/>
<text text-anchor="middle" x="716" y="-436.105" font-family="Times,serif" font-size="14.00">tnrs:usedSource</text>
</g>
<!-- Rncbitax:9694 -->
<g id="node23" class="node"><title>Rncbitax:9694</title>
<ellipse fill="none" stroke="blue" cx="939" cy="-457.705" rx="56.9827" ry="18"/>
<text text-anchor="middle" x="939" y="-452.105" font-family="Times,serif" font-size="14.00">ncbitax:9694</text>
</g>
<!-- B_:genid2&#45;&gt;Rncbitax:9694 -->
<g id="edge22" class="edge"><title>B_:genid2&#45;&gt;Rncbitax:9694</title>
<path fill="none" stroke="black" d="M572.1,-520.381C591.179,-505.81 626.884,-481.134 662,-470.705 731.95,-449.932 816.168,-449.2 873.24,-452.059"/>
<polygon fill="black" stroke="black" points="873.393,-455.573 883.571,-452.631 873.78,-448.584 873.393,-455.573"/>
<text text-anchor="middle" x="716" y="-472.105" font-family="Times,serif" font-size="14.00">tc:toTaxon</text>
</g>
<!-- Rhttp://www.ncbi.nlm.nih.gov/taxonomy&#45;&gt;L200: OK -->
<g id="edge64" class="edge"><title>Rhttp://www.ncbi.nlm.nih.gov/taxonomy&#45;&gt;L200: OK</title>
<path fill="none" stroke="black" d="M1040.52,-417.095C1057.3,-420.657 1074.32,-425.123 1090,-430.705 1098.62,-433.775 1099.54,-437.203 1108,-440.705 1155.83,-460.517 1169.28,-462.34 1220,-472.705 1290.96,-487.206 1374.86,-496.006 1424.35,-500.355"/>
<polygon fill="black" stroke="black" points="1424.11,-503.847 1434.37,-501.216 1424.71,-496.873 1424.11,-503.847"/>
<text text-anchor="middle" x="1155" y="-470.105" font-family="Times,serif" font-size="14.00">tnrs:sourceStatus</text>
</g>
<!-- Rhttp://www.ncbi.nlm.nih.gov/taxonomy&#45;&gt;Rtnrs:ResolutionSource -->
<g id="edge70" class="edge"><title>Rhttp://www.ncbi.nlm.nih.gov/taxonomy&#45;&gt;Rtnrs:ResolutionSource</title>
<path fill="none" stroke="black" d="M1063.33,-414.12C1073.01,-418.352 1082.08,-423.782 1090,-430.705 1109.68,-447.912 1090.11,-467.644 1108,-486.705 1108.29,-487.01 1219.6,-530.6 1220,-530.705 1269.94,-543.754 1326.95,-552.024 1373.61,-557.135"/>
<polygon fill="black" stroke="black" points="1373.39,-560.632 1383.71,-558.21 1374.13,-553.671 1373.39,-560.632"/>
<text text-anchor="middle" x="1155" y="-524.105" font-family="Times,serif" font-size="14.00">rdf:type</text>
</g>
<!-- L3 -->
<g id="node57" class="node"><title>L3</title>
<polygon fill="none" stroke="black" points="1440,-427.705 1440,-463.705 1494,-463.705 1494,-427.705 1440,-427.705"/>
<text text-anchor="middle" x="1467" y="-440.105" font-family="Times,serif" font-size="14.00">3</text>
</g>
<!-- Rhttp://www.ncbi.nlm.nih.gov/taxonomy&#45;&gt;L3 -->
<g id="edge62" class="edge"><title>Rhttp://www.ncbi.nlm.nih.gov/taxonomy&#45;&gt;L3</title>
<path fill="none" stroke="black" d="M1064.8,-413.712C1183.7,-423.171 1354.7,-436.773 1429.54,-442.726"/>
<polygon fill="black" stroke="black" points="1429.62,-446.243 1439.86,-443.547 1430.17,-439.265 1429.62,-446.243"/>
<text text-anchor="middle" x="1155" y="-424.105" font-family="Times,serif" font-size="14.00">tnrs:hasRank</text>
</g>
<!-- LNCBI Taxonomy -->
<g id="node60" class="node"><title>LNCBI Taxonomy</title>
<polygon fill="none" stroke="black" points="1409.5,-373.705 1409.5,-409.705 1524.5,-409.705 1524.5,-373.705 1409.5,-373.705"/>
<text text-anchor="middle" x="1467" y="-386.105" font-family="Times,serif" font-size="14.00">NCBI Taxonomy</text>
</g>
<!-- Rhttp://www.ncbi.nlm.nih.gov/taxonomy&#45;&gt;LNCBI Taxonomy -->
<g id="edge66" class="edge"><title>Rhttp://www.ncbi.nlm.nih.gov/taxonomy&#45;&gt;LNCBI Taxonomy</title>
<path fill="none" stroke="black" d="M1087.48,-400.331C1189.8,-398.006 1320.95,-395.025 1399.23,-393.246"/>
<polygon fill="black" stroke="black" points="1399.53,-396.74 1409.45,-393.013 1399.37,-389.742 1399.53,-396.74"/>
<text text-anchor="middle" x="1155" y="-401.105" font-family="Times,serif" font-size="14.00">dc:description</text>
</g>
<!-- LNCBI -->
<g id="node62" class="node"><title>LNCBI</title>
<polygon fill="none" stroke="black" points="1440,-319.705 1440,-355.705 1494,-355.705 1494,-319.705 1440,-319.705"/>
<text text-anchor="middle" x="1467" y="-332.105" font-family="Times,serif" font-size="14.00">NCBI</text>
</g>
<!-- Rhttp://www.ncbi.nlm.nih.gov/taxonomy&#45;&gt;LNCBI -->
<g id="edge68" class="edge"><title>Rhttp://www.ncbi.nlm.nih.gov/taxonomy&#45;&gt;LNCBI</title>
<path fill="none" stroke="black" d="M1035.95,-389.803C1059.52,-386.46 1084.66,-382.925 1108,-379.705 1157.75,-372.841 1170.15,-370.768 1220,-364.705 1294.4,-355.658 1381.59,-346.454 1429.93,-341.474"/>
<polygon fill="black" stroke="black" points="1430.34,-344.951 1439.93,-340.448 1429.62,-337.988 1430.34,-344.951"/>
<text text-anchor="middle" x="1155" y="-381.105" font-family="Times,serif" font-size="14.00">dc:title</text>
</g>
<!-- B_:genid3 -->
<g id="node25" class="node"><title>B_:genid3</title>
<ellipse fill="none" stroke="green" cx="263" cy="-603.705" rx="18" ry="18"/>
</g>
<!-- B_:genid3&#45;&gt;B_:genid1 -->
<g id="edge28" class="edge"><title>B_:genid3&#45;&gt;B_:genid1</title>
<path fill="none" stroke="black" d="M270.543,-620.056C285.302,-650.472 320.729,-716.239 368,-755.705 418.008,-797.457 491.574,-823.001 530.883,-834.496"/>
<polygon fill="black" stroke="black" points="529.983,-837.879 540.559,-837.243 531.895,-831.145 529.983,-837.879"/>
<text text-anchor="middle" x="411" y="-806.105" font-family="Times,serif" font-size="14.00">tnrs:matches</text>
</g>
<!-- B_:genid3&#45;&gt;B_:genid2 -->
<g id="edge30" class="edge"><title>B_:genid3&#45;&gt;B_:genid2</title>
<path fill="none" stroke="black" d="M280.57,-599.417C329.95,-587.365 470.264,-553.119 530.25,-538.478"/>
<polygon fill="black" stroke="black" points="531.264,-541.834 540.149,-536.062 529.604,-535.033 531.264,-541.834"/>
<text text-anchor="middle" x="411" y="-577.105" font-family="Times,serif" font-size="14.00">tnrs:matches</text>
</g>
<!-- B_:genid3&#45;&gt;LPanthera tigris -->
<g id="edge32" class="edge"><title>B_:genid3&#45;&gt;LPanthera tigris</title>
<path fill="none" stroke="black" d="M281.285,-604.762C337.854,-607.971 515.046,-617.576 662,-620.705 709.989,-621.727 727.279,-642.589 770,-620.705 782.186,-614.463 776.413,-603 788,-595.705 815.014,-578.699 849.836,-571.699 879.231,-569.063"/>
<polygon fill="black" stroke="black" points="879.67,-572.54 889.381,-568.304 879.147,-565.56 879.67,-572.54"/>
<text text-anchor="middle" x="558" y="-621.105" font-family="Times,serif" font-size="14.00">tnrs:submittedName</text>
</g>
<!-- B_:genid3&#45;&gt;L2 -->
<g id="edge26" class="edge"><title>B_:genid3&#45;&gt;L2</title>
<path fill="none" stroke="black" d="M279.75,-610.315C333.93,-631.311 509.745,-696.476 662,-719.705 954.795,-764.377 1314.37,-746.062 1429.61,-738.423"/>
<polygon fill="black" stroke="black" points="1429.94,-741.909 1439.68,-737.741 1429.46,-734.925 1429.94,-741.909"/>
<text text-anchor="middle" x="716" y="-733.105" font-family="Times,serif" font-size="14.00">tnrs:matchCount</text>
</g>
<!-- Rrequest -->
<g id="node32" class="node"><title>Rrequest</title>
<ellipse fill="none" stroke="blue" cx="558" cy="-430.705" rx="36.0055" ry="18"/>
<text text-anchor="middle" x="558" y="-425.105" font-family="Times,serif" font-size="14.00">request</text>
</g>
<!-- B_:genid3&#45;&gt;Rrequest -->
<g id="edge34" class="edge"><title>B_:genid3&#45;&gt;Rrequest</title>
<path fill="none" stroke="black" d="M280.973,-602.255C300.086,-599.853 330.23,-593.494 350,-576.705 363.635,-565.126 355.743,-553.735 368,-540.705 411.126,-494.859 477.674,-462.388 519.482,-445.114"/>
<polygon fill="black" stroke="black" points="520.82,-448.348 528.779,-441.355 518.196,-441.859 520.82,-448.348"/>
<text text-anchor="middle" x="411" y="-542.105" font-family="Times,serif" font-size="14.00">dcterms:source</text>
</g>
<!-- Rtnrs:NameResolution -->
<g id="node34" class="node"><title>Rtnrs:NameResolution</title>
<ellipse fill="none" stroke="blue" cx="558" cy="-376.705" rx="84.7776" ry="18"/>
<text text-anchor="middle" x="558" y="-371.105" font-family="Times,serif" font-size="14.00">tnrs:NameResolution</text>
</g>
<!-- B_:genid3&#45;&gt;Rtnrs:NameResolution -->
<g id="edge36" class="edge"><title>B_:genid3&#45;&gt;Rtnrs:NameResolution</title>
<path fill="none" stroke="black" d="M281.348,-603.419C301.378,-602.049 332.875,-596.604 350,-576.705 384.606,-536.495 337.268,-501.949 368,-458.705 394.052,-422.047 440.056,-401.633 480.27,-390.342"/>
<polygon fill="black" stroke="black" points="481.32,-393.684 490.084,-387.731 479.521,-386.919 481.32,-393.684"/>
<text text-anchor="middle" x="411" y="-460.105" font-family="Times,serif" font-size="14.00">rdf:type</text>
</g>
<!-- Rrequest&#45;&gt;Rhttp://tnrs.iplantcollaborative.org/ -->
<g id="edge46" class="edge"><title>Rrequest&#45;&gt;Rhttp://tnrs.iplantcollaborative.org/</title>
<path fill="none" stroke="black" d="M581.225,-444.83C600.843,-457.956 628.199,-479.275 644,-504.705 660.954,-531.99 638.394,-552.919 662,-574.705 701.425,-611.092 758.063,-625.081 809.864,-629.198"/>
<polygon fill="black" stroke="black" points="809.94,-632.711 820.153,-629.893 810.412,-625.726 809.94,-632.711"/>
<text text-anchor="middle" x="716" y="-625.105" font-family="Times,serif" font-size="14.00">tnrs:usedSource</text>
</g>
<!-- Rrequest&#45;&gt;Rhttp://www.ncbi.nlm.nih.gov/taxonomy -->
<g id="edge48" class="edge"><title>Rrequest&#45;&gt;Rhttp://www.ncbi.nlm.nih.gov/taxonomy</title>
<path fill="none" stroke="black" d="M591.957,-424.26C608.512,-420.099 628.205,-413.571 644,-403.705 653.866,-397.543 651.314,-389.302 662,-384.705 693.326,-371.231 774.637,-378.455 841.113,-387.613"/>
<polygon fill="black" stroke="black" points="840.834,-391.108 851.224,-389.036 841.81,-384.177 840.834,-391.108"/>
<text text-anchor="middle" x="716" y="-386.105" font-family="Times,serif" font-size="14.00">tnrs:usedSource</text>
</g>
<!-- LMon Jun 11 20:25:16 2012 -->
<g id="node42" class="node"><title>LMon Jun 11 20:25:16 2012</title>
<polygon fill="none" stroke="black" points="855,-328.705 855,-364.705 1023,-364.705 1023,-328.705 855,-328.705"/>
<text text-anchor="middle" x="939" y="-341.105" font-family="Times,serif" font-size="14.00">Mon Jun 11 20:25:16 2012</text>
</g>
<!-- Rrequest&#45;&gt;LMon Jun 11 20:25:16 2012 -->
<g id="edge44" class="edge"><title>Rrequest&#45;&gt;LMon Jun 11 20:25:16 2012</title>
<path fill="none" stroke="black" d="M593.363,-426.747C610.467,-423.198 630.225,-416.468 644,-403.705 659.801,-389.066 644.428,-371.165 662,-358.705 715.729,-320.607 791.159,-319.808 849.742,-327.32"/>
<polygon fill="black" stroke="black" points="849.347,-330.798 859.732,-328.701 850.306,-323.864 849.347,-330.798"/>
<text text-anchor="middle" x="716" y="-360.105" font-family="Times,serif" font-size="14.00">tnrs:submitDate</text>
</g>
<!-- Rtnrs:ResolutionRequest -->
<g id="node46" class="node"><title>Rtnrs:ResolutionRequest</title>
<ellipse fill="none" stroke="blue" cx="939" cy="-292.705" rx="92.8564" ry="18"/>
<text text-anchor="middle" x="939" y="-287.105" font-family="Times,serif" font-size="14.00">tnrs:ResolutionRequest</text>
</g>
<!-- Rrequest&#45;&gt;Rtnrs:ResolutionRequest -->
<g id="edge50" class="edge"><title>Rrequest&#45;&gt;Rtnrs:ResolutionRequest</title>
<path fill="none" stroke="black" d="M593.614,-428.003C611.214,-424.797 631.339,-417.995 644,-403.705 673.078,-370.887 629.004,-335.582 662,-306.705 720.008,-255.94 813.789,-263.192 875.917,-275.751"/>
<polygon fill="black" stroke="black" points="875.478,-279.236 885.987,-277.889 876.932,-272.388 875.478,-279.236"/>
<text text-anchor="middle" x="716" y="-308.105" font-family="Times,serif" font-size="14.00">rdf:type</text>
</g>
<!-- Rotu5 -->
<g id="node35" class="node"><title>Rotu5</title>
<ellipse fill="none" stroke="blue" cx="27" cy="-549.705" rx="27" ry="18"/>
<text text-anchor="middle" x="27" y="-544.105" font-family="Times,serif" font-size="14.00">otu5</text>
</g>
<!-- Rotu5&#45;&gt;B_:genid3 -->
<g id="edge38" class="edge"><title>Rotu5&#45;&gt;B_:genid3</title>
<path fill="none" stroke="black" d="M49.5912,-559.737C56.6655,-562.607 64.5676,-565.541 72,-567.705 128.762,-584.237 197.293,-595.003 234.896,-600.151"/>
<polygon fill="black" stroke="black" points="234.711,-603.658 245.086,-601.512 235.638,-596.719 234.711,-603.658"/>
<text text-anchor="middle" x="115" y="-588.105" font-family="Times,serif" font-size="14.00">tnrs:resolvesAs</text>
</g>
<!-- Robo:CDAO_0000138 -->
<g id="node38" class="node"><title>Robo:CDAO_0000138</title>
<ellipse fill="none" stroke="blue" cx="263" cy="-549.705" rx="87.1713" ry="18"/>
<text text-anchor="middle" x="263" y="-544.105" font-family="Times,serif" font-size="14.00">obo:CDAO_0000138</text>
</g>
<!-- Rotu5&#45;&gt;Robo:CDAO_0000138 -->
<g id="edge40" class="edge"><title>Rotu5&#45;&gt;Robo:CDAO_0000138</title>
<path fill="none" stroke="black" d="M54.0722,-549.705C81.3619,-549.705 125.115,-549.705 165.547,-549.705"/>
<polygon fill="black" stroke="black" points="165.743,-553.206 175.743,-549.705 165.743,-546.206 165.743,-553.206"/>
<text text-anchor="middle" x="115" y="-551.105" font-family="Times,serif" font-size="14.00">rdf:type</text>
</g>
<!-- LPanthera tigris HQ263408 -->
<g id="node40" class="node"><title>LPanthera tigris HQ263408</title>
<polygon fill="none" stroke="black" points="179.5,-477.705 179.5,-513.705 346.5,-513.705 346.5,-477.705 179.5,-477.705"/>
<text text-anchor="middle" x="263" y="-490.105" font-family="Times,serif" font-size="14.00">Panthera tigris HQ263408</text>
</g>
<!-- Rotu5&#45;&gt;LPanthera tigris HQ263408 -->
<g id="edge42" class="edge"><title>Rotu5&#45;&gt;LPanthera tigris HQ263408</title>
<path fill="none" stroke="black" d="M49.5912,-539.674C56.6655,-536.804 64.5676,-533.87 72,-531.705 103.28,-522.595 138.134,-515.236 169.417,-509.603"/>
<polygon fill="black" stroke="black" points="170.199,-513.019 179.439,-507.835 168.983,-506.126 170.199,-513.019"/>
<text text-anchor="middle" x="115" y="-533.105" font-family="Times,serif" font-size="14.00">rdfs:label</text>
</g>
</g>
</svg>
