<?xml version="1.0" encoding="UTF-8" standalone="no"?>
<!DOCTYPE svg PUBLIC "-//W3C//DTD SVG 1.1//EN"
 "http://www.w3.org/Graphics/SVG/1.1/DTD/svg11.dtd">
<!-- Generated by graphviz version 2.24.0 (20090616.2323)
 -->
<!-- Title: _anonymous_0 Pages: 1 -->
<svg width="1722pt" height="1044pt"
 viewBox="0.00 0.00 1722.00 1043.71" xmlns="http://www.w3.org/2000/svg" xmlns:xlink="http://www.w3.org/1999/xlink">
<g id="graph1" class="graph" transform="scale(1 1) rotate(0) translate(4 1039.71)">
<title>_anonymous_0</title>
<polygon fill="white" stroke="white" points="-4,5 -4,-1039.71 1719,-1039.71 1719,5 -4,5"/>
<text text-anchor="middle" x="857" y="-231.4" font-family="Times,serif" font-size="14.00">Model:</text>
<text text-anchor="middle" x="857" y="-217.4" font-family="Times,serif" font-size="14.00">(Unknown)</text>
<text text-anchor="middle" x="857" y="-187.4" font-family="Times,serif" font-size="14.00">Namespaces:</text>
<text text-anchor="middle" x="857" y="-173.4" font-family="Times,serif" font-size="14.00">rdf: http://www.w3.org/1999/02/22&#45;rdf&#45;syntax&#45;ns#</text>
<text text-anchor="middle" x="857" y="-159.4" font-family="Times,serif" font-size="14.00">http://phylotastic.org/terms/tnrs&#45;instance.rdf#</text>
<text text-anchor="middle" x="857" y="-145.4" font-family="Times,serif" font-size="14.00">dc: http://purl.org/dc/elements/1.1/</text>
<text text-anchor="middle" x="857" y="-131.4" font-family="Times,serif" font-size="14.00">tnrs: http://phylotastic.org/terms/tnrs.rdf#</text>
<text text-anchor="middle" x="857" y="-117.4" font-family="Times,serif" font-size="14.00">dsw: http://purl.org/dsw/</text>
<text text-anchor="middle" x="857" y="-103.4" font-family="Times,serif" font-size="14.00">dcterms: http://purl.org/dc/terms/</text>
<text text-anchor="middle" x="857" y="-89.4" font-family="Times,serif" font-size="14.00">ncbitax: http://www.ncbi.nlm.nih.gov/taxonomy/</text>
<text text-anchor="middle" x="857" y="-75.4" font-family="Times,serif" font-size="14.00">tropicos: http://www.tropicos.org/Name/</text>
<text text-anchor="middle" x="857" y="-61.4" font-family="Times,serif" font-size="14.00">obo: http://purl.obolibrary.org/obo/</text>
<text text-anchor="middle" x="857" y="-47.4" font-family="Times,serif" font-size="14.00">rdfs: http://www.w3.org/2000/01/rdf&#45;schema#</text>
<text text-anchor="middle" x="857" y="-33.4" font-family="Times,serif" font-size="14.00">owl: http://www.w3.org/2002/07/owl#</text>
<text text-anchor="middle" x="857" y="-19.4" font-family="Times,serif" font-size="14.00">xsd: http://www.w3.org/2001/XMLSchema#</text>
<text text-anchor="middle" x="857" y="-5.4" font-family="Times,serif" font-size="14.00">dwc: http://rs.tdwg.org/dwc/terms/</text>
<!-- B_:genid1 -->
<g id="node1" class="node"><title>B_:genid1</title>
<ellipse fill="none" stroke="green" cx="558" cy="-855.705" rx="18" ry="18"/>
</g>
<!-- LMegalachne -->
<g id="node3" class="node"><title>LMegalachne</title>
<polygon fill="none" stroke="black" points="895.5,-999.705 895.5,-1035.71 982.5,-1035.71 982.5,-999.705 895.5,-999.705"/>
<text text-anchor="middle" x="939" y="-1012.11" font-family="Times,serif" font-size="14.00">Megalachne</text>
</g>
<!-- B_:genid1&#45;&gt;LMegalachne -->
<g id="edge2" class="edge"><title>B_:genid1&#45;&gt;LMegalachne</title>
<path fill="none" stroke="black" d="M569.573,-870.069C587.31,-891.165 623.257,-930.433 662,-952.705 732.496,-993.233 826.866,-1008.52 885.258,-1014.26"/>
<polygon fill="black" stroke="black" points="885.094,-1017.76 895.373,-1015.2 885.738,-1010.79 885.094,-1017.76"/>
<text text-anchor="middle" x="716" y="-993.105" font-family="Times,serif" font-size="14.00">tnrs:acceptedName</text>
</g>
<!-- LPantathera -->
<g id="node5" class="node"><title>LPantathera</title>
<polygon fill="none" stroke="black" points="901.5,-945.705 901.5,-981.705 976.5,-981.705 976.5,-945.705 901.5,-945.705"/>
<text text-anchor="middle" x="939" y="-958.105" font-family="Times,serif" font-size="14.00">Pantathera</text>
</g>
<!-- B_:genid1&#45;&gt;LPantathera -->
<g id="edge4" class="edge"><title>B_:genid1&#45;&gt;LPantathera</title>
<path fill="none" stroke="black" d="M573.768,-864.562C593.77,-875.493 629.569,-894.062 662,-905.705 739.925,-933.683 835.284,-949.959 891.36,-957.816"/>
<polygon fill="black" stroke="black" points="890.978,-961.296 901.361,-959.186 891.929,-954.361 890.978,-961.296"/>
<text text-anchor="middle" x="716" y="-936.105" font-family="Times,serif" font-size="14.00">tnrs:matchedName</text>
</g>
<!-- L0.47790686999749 -->
<g id="node7" class="node"><title>L0.47790686999749</title>
<polygon fill="none" stroke="black" points="874,-891.705 874,-927.705 1004,-927.705 1004,-891.705 874,-891.705"/>
<text text-anchor="middle" x="939" y="-904.105" font-family="Times,serif" font-size="14.00">0.47790686999749</text>
</g>
<!-- B_:genid1&#45;&gt;L0.47790686999749 -->
<g id="edge6" class="edge"><title>B_:genid1&#45;&gt;L0.47790686999749</title>
<path fill="none" stroke="black" d="M575.999,-859.058C596.705,-862.859 631.744,-869.123 662,-873.705 730.159,-884.028 808.033,-893.987 863.817,-900.803"/>
<polygon fill="black" stroke="black" points="863.619,-904.305 873.968,-902.039 864.464,-897.356 863.619,-904.305"/>
<text text-anchor="middle" x="716" y="-889.105" font-family="Times,serif" font-size="14.00">tnrs:score</text>
</g>
<!-- Rhttp://tnrs.iplantcollaborative.org/ -->
<g id="node9" class="node"><title>Rhttp://tnrs.iplantcollaborative.org/</title>
<ellipse fill="none" stroke="blue" cx="939" cy="-636.705" rx="128.994" ry="18"/>
<text text-anchor="middle" x="939" y="-631.105" font-family="Times,serif" font-size="14.00">http://tnrs.iplantcollaborative.org/</text>
</g>
<!-- B_:genid1&#45;&gt;Rhttp://tnrs.iplantcollaborative.org/ -->
<g id="edge8" class="edge"><title>B_:genid1&#45;&gt;Rhttp://tnrs.iplantcollaborative.org/</title>
<path fill="none" stroke="black" d="M565.656,-839.267C580.101,-810.184 614.269,-749.89 662,-719.705 703.479,-693.475 722.774,-710.055 770,-696.705 809.676,-685.49 853.527,-669.822 886.617,-657.31"/>
<polygon fill="black" stroke="black" points="887.987,-660.533 896.087,-653.704 885.496,-653.991 887.987,-660.533"/>
<text text-anchor="middle" x="716" y="-721.105" font-family="Times,serif" font-size="14.00">tnrs:usedSource</text>
</g>
<!-- Rtropicos:40015658 -->
<g id="node11" class="node"><title>Rtropicos:40015658</title>
<ellipse fill="none" stroke="blue" cx="939" cy="-855.705" rx="78.9595" ry="18"/>
<text text-anchor="middle" x="939" y="-850.105" font-family="Times,serif" font-size="14.00">tropicos:40015658</text>
</g>
<!-- B_:genid1&#45;&gt;Rtropicos:40015658 -->
<g id="edge10" class="edge"><title>B_:genid1&#45;&gt;Rtropicos:40015658</title>
<path fill="none" stroke="black" d="M576.12,-855.705C624.441,-855.705 758.881,-855.705 849.839,-855.705"/>
<polygon fill="black" stroke="black" points="849.879,-859.206 859.879,-855.705 849.879,-852.206 849.879,-859.206"/>
<text text-anchor="middle" x="716" y="-857.105" font-family="Times,serif" font-size="14.00">dsw:toTaxon</text>
</g>
<!-- Rtnrs:Match -->
<g id="node13" class="node"><title>Rtnrs:Match</title>
<ellipse fill="none" stroke="blue" cx="939" cy="-801.705" rx="46.877" ry="18"/>
<text text-anchor="middle" x="939" y="-796.105" font-family="Times,serif" font-size="14.00">tnrs:Match</text>
</g>
<!-- B_:genid1&#45;&gt;Rtnrs:Match -->
<g id="edge12" class="edge"><title>B_:genid1&#45;&gt;Rtnrs:Match</title>
<path fill="none" stroke="black" d="M575.999,-852.353C596.705,-848.552 631.744,-842.288 662,-837.705 738.51,-826.118 827.26,-814.989 883.267,-808.249"/>
<polygon fill="black" stroke="black" points="883.82,-811.708 893.333,-807.042 882.987,-804.757 883.82,-811.708"/>
<text text-anchor="middle" x="716" y="-839.105" font-family="Times,serif" font-size="14.00">rdf:type</text>
</g>
<!-- L2 -->
<g id="node27" class="node"><title>L2</title>
<polygon fill="none" stroke="black" points="1440,-731.705 1440,-767.705 1494,-767.705 1494,-731.705 1440,-731.705"/>
<text text-anchor="middle" x="1467" y="-744.105" font-family="Times,serif" font-size="14.00">2</text>
</g>
<!-- Rhttp://tnrs.iplantcollaborative.org/&#45;&gt;L2 -->
<g id="edge52" class="edge"><title>Rhttp://tnrs.iplantcollaborative.org/&#45;&gt;L2</title>
<path fill="none" stroke="black" d="M989.216,-653.384C1045.01,-671.354 1138.06,-699.661 1220,-716.705 1293.59,-732.014 1381.07,-741.744 1429.68,-746.416"/>
<polygon fill="black" stroke="black" points="1429.45,-749.909 1439.74,-747.363 1430.11,-742.94 1429.45,-749.909"/>
<text text-anchor="middle" x="1155" y="-712.105" font-family="Times,serif" font-size="14.00">tnrs:hasRank</text>
</g>
<!-- L200: OK -->
<g id="node49" class="node"><title>L200: OK</title>
<polygon fill="none" stroke="black" points="1434.5,-499.705 1434.5,-535.705 1499.5,-535.705 1499.5,-499.705 1434.5,-499.705"/>
<text text-anchor="middle" x="1467" y="-512.105" font-family="Times,serif" font-size="14.00">200: OK</text>
</g>
<!-- Rhttp://tnrs.iplantcollaborative.org/&#45;&gt;L200: OK -->
<g id="edge54" class="edge"><title>Rhttp://tnrs.iplantcollaborative.org/&#45;&gt;L200: OK</title>
<path fill="none" stroke="black" d="M1046.43,-626.602C1061.63,-622.608 1076.62,-617.147 1090,-609.705 1100.45,-603.894 1098.01,-596.285 1108,-589.705 1151.9,-560.787 1168.84,-563.789 1220,-551.705 1290.6,-535.031 1374.61,-525.617 1424.22,-521.104"/>
<polygon fill="black" stroke="black" points="1424.62,-524.583 1434.27,-520.215 1424,-517.61 1424.62,-524.583"/>
<text text-anchor="middle" x="1155" y="-591.105" font-family="Times,serif" font-size="14.00">tnrs:sourceStatus</text>
</g>
<!-- LThe iPlant Collaborative TNRS provides parsing and fuzzy matching for plant taxa. -->
<g id="node51" class="node"><title>LThe iPlant Collaborative TNRS provides parsing and fuzzy matching for plant taxa.</title>
<polygon fill="none" stroke="black" points="1220,-617.705 1220,-653.705 1714,-653.705 1714,-617.705 1220,-617.705"/>
<text text-anchor="middle" x="1467" y="-630.105" font-family="Times,serif" font-size="14.00">The iPlant Collaborative TNRS provides parsing and fuzzy matching for plant taxa.</text>
</g>
<!-- Rhttp://tnrs.iplantcollaborative.org/&#45;&gt;LThe iPlant Collaborative TNRS provides parsing and fuzzy matching for plant taxa. -->
<g id="edge56" class="edge"><title>Rhttp://tnrs.iplantcollaborative.org/&#45;&gt;LThe iPlant Collaborative TNRS provides parsing and fuzzy matching for plant taxa.</title>
<path fill="none" stroke="black" d="M1068.5,-636.46C1111.35,-636.379 1160.64,-636.286 1209.63,-636.193"/>
<polygon fill="black" stroke="black" points="1209.76,-639.693 1219.75,-636.174 1209.75,-632.693 1209.76,-639.693"/>
<text text-anchor="middle" x="1155" y="-637.105" font-family="Times,serif" font-size="14.00">dc:description</text>
</g>
<!-- LiPlant Collaborative TNRS v3.0 -->
<g id="node53" class="node"><title>LiPlant Collaborative TNRS v3.0</title>
<polygon fill="none" stroke="black" points="1367.5,-671.705 1367.5,-707.705 1566.5,-707.705 1566.5,-671.705 1367.5,-671.705"/>
<text text-anchor="middle" x="1467" y="-684.105" font-family="Times,serif" font-size="14.00">iPlant Collaborative TNRS v3.0</text>
</g>
<!-- Rhttp://tnrs.iplantcollaborative.org/&#45;&gt;LiPlant Collaborative TNRS v3.0 -->
<g id="edge58" class="edge"><title>Rhttp://tnrs.iplantcollaborative.org/&#45;&gt;LiPlant Collaborative TNRS v3.0</title>
<path fill="none" stroke="black" d="M1044.03,-647.275C1065.21,-649.405 1087.31,-651.628 1108,-653.705 1191.46,-662.088 1285.84,-671.552 1356.88,-678.671"/>
<polygon fill="black" stroke="black" points="1356.89,-682.19 1367.18,-679.705 1357.58,-675.225 1356.89,-682.19"/>
<text text-anchor="middle" x="1155" y="-663.105" font-family="Times,serif" font-size="14.00">dc:title</text>
</g>
<!-- Rtnrs:ResolutionSource -->
<g id="node55" class="node"><title>Rtnrs:ResolutionSource</title>
<ellipse fill="none" stroke="blue" cx="1467" cy="-578.705" rx="89.0663" ry="18"/>
<text text-anchor="middle" x="1467" y="-573.105" font-family="Times,serif" font-size="14.00">tnrs:ResolutionSource</text>
</g>
<!-- Rhttp://tnrs.iplantcollaborative.org/&#45;&gt;Rtnrs:ResolutionSource -->
<g id="edge60" class="edge"><title>Rhttp://tnrs.iplantcollaborative.org/&#45;&gt;Rtnrs:ResolutionSource</title>
<path fill="none" stroke="black" d="M1039.53,-625.341C1062.06,-622.811 1085.84,-620.154 1108,-617.705 1200.1,-607.526 1305.51,-596.101 1378.17,-588.262"/>
<polygon fill="black" stroke="black" points="1378.64,-591.732 1388.2,-587.18 1377.88,-584.772 1378.64,-591.732"/>
<text text-anchor="middle" x="1155" y="-619.105" font-family="Times,serif" font-size="14.00">rdf:type</text>
</g>
<!-- B_:genid2 -->
<g id="node14" class="node"><title>B_:genid2</title>
<ellipse fill="none" stroke="green" cx="558" cy="-545.705" rx="18" ry="18"/>
</g>
<!-- B_:genid2&#45;&gt;Rtnrs:Match -->
<g id="edge24" class="edge"><title>B_:genid2&#45;&gt;Rtnrs:Match</title>
<path fill="none" stroke="black" d="M572.175,-557.065C590.161,-571.902 621.54,-599.236 644,-626.705 653.602,-638.449 649.588,-646.983 662,-655.705 702.153,-683.923 725.179,-658.717 770,-678.705 826.283,-703.806 882.264,-749.732 913.575,-777.808"/>
<polygon fill="black" stroke="black" points="911.605,-780.747 921.361,-784.88 916.312,-775.565 911.605,-780.747"/>
<text text-anchor="middle" x="716" y="-680.105" font-family="Times,serif" font-size="14.00">rdf:type</text>
</g>
<!-- LPanthera tigris -->
<g id="node16" class="node"><title>LPanthera tigris</title>
<polygon fill="none" stroke="black" points="889.5,-564.705 889.5,-600.705 988.5,-600.705 988.5,-564.705 889.5,-564.705"/>
<text text-anchor="middle" x="939" y="-577.105" font-family="Times,serif" font-size="14.00">Panthera tigris</text>
</g>
<!-- B_:genid2&#45;&gt;LPanthera tigris -->
<g id="edge14" class="edge"><title>B_:genid2&#45;&gt;LPanthera tigris</title>
<path fill="none" stroke="black" d="M575.992,-548.657C596.691,-551.97 631.724,-557.323 662,-560.705 736.697,-569.05 823.073,-575.386 879.244,-579.068"/>
<polygon fill="black" stroke="black" points="879.166,-582.57 889.371,-579.724 879.619,-575.585 879.166,-582.57"/>
<text text-anchor="middle" x="716" y="-572.105" font-family="Times,serif" font-size="14.00">tnrs:acceptedName</text>
</g>
<!-- B_:genid2&#45;&gt;LPanthera tigris -->
<g id="edge16" class="edge"><title>B_:genid2&#45;&gt;LPanthera tigris</title>
<path fill="none" stroke="black" d="M576.033,-545.027C596.77,-544.285 631.838,-543.14 662,-542.705 709.995,-542.013 723.535,-530.665 770,-542.705 778.859,-545.001 779.408,-549.554 788,-552.705 817.164,-563.404 850.971,-570.572 879.195,-575.21"/>
<polygon fill="black" stroke="black" points="878.898,-578.706 889.321,-576.806 879.988,-571.792 878.898,-578.706"/>
<text text-anchor="middle" x="716" y="-544.105" font-family="Times,serif" font-size="14.00">tnrs:matchedName</text>
</g>
<!-- L1.0 -->
<g id="node19" class="node"><title>L1.0</title>
<polygon fill="none" stroke="black" points="912,-507.705 912,-543.705 966,-543.705 966,-507.705 912,-507.705"/>
<text text-anchor="middle" x="939" y="-520.105" font-family="Times,serif" font-size="14.00">1.0</text>
</g>
<!-- B_:genid2&#45;&gt;L1.0 -->
<g id="edge18" class="edge"><title>B_:genid2&#45;&gt;L1.0</title>
<path fill="none" stroke="black" d="M574.48,-538.071C594.617,-529.2 629.968,-515.093 662,-509.705 746.838,-495.437 848.118,-508.864 901.609,-518.288"/>
<polygon fill="black" stroke="black" points="901.187,-521.769 911.651,-520.11 902.436,-514.881 901.187,-521.769"/>
<text text-anchor="middle" x="716" y="-511.105" font-family="Times,serif" font-size="14.00">tnrs:score</text>
</g>
<!-- Rhttp://www.ncbi.nlm.nih.gov/taxonomy -->
<g id="node21" class="node"><title>Rhttp://www.ncbi.nlm.nih.gov/taxonomy</title>
<ellipse fill="none" stroke="blue" cx="939" cy="-417.705" rx="150.971" ry="18"/>
<text text-anchor="middle" x="939" y="-412.105" font-family="Times,serif" font-size="14.00">http://www.ncbi.nlm.nih.gov/taxonomy</text>
</g>
<!-- B_:genid2&#45;&gt;Rhttp://www.ncbi.nlm.nih.gov/taxonomy -->
<g id="edge20" class="edge"><title>B_:genid2&#45;&gt;Rhttp://www.ncbi.nlm.nih.gov/taxonomy</title>
<path fill="none" stroke="black" d="M572.455,-534.707C590.184,-520.902 620.743,-496.069 644,-471.705 652.963,-462.316 650.666,-455.032 662,-448.705 698.673,-428.235 742.318,-418.082 783.993,-413.603"/>
<polygon fill="black" stroke="black" points="784.359,-417.084 793.974,-412.633 783.682,-410.117 784.359,-417.084"/>
<text text-anchor="middle" x="716" y="-450.105" font-family="Times,serif" font-size="14.00">tnrs:usedSource</text>
</g>
<!-- Rncbitax:9694 -->
<g id="node23" class="node"><title>Rncbitax:9694</title>
<ellipse fill="none" stroke="blue" cx="939" cy="-471.705" rx="56.9827" ry="18"/>
<text text-anchor="middle" x="939" y="-466.105" font-family="Times,serif" font-size="14.00">ncbitax:9694</text>
</g>
<!-- B_:genid2&#45;&gt;Rncbitax:9694 -->
<g id="edge22" class="edge"><title>B_:genid2&#45;&gt;Rncbitax:9694</title>
<path fill="none" stroke="black" d="M572.1,-534.381C591.179,-519.81 626.884,-495.134 662,-484.705 731.95,-463.932 816.168,-463.2 873.24,-466.059"/>
<polygon fill="black" stroke="black" points="873.393,-469.573 883.571,-466.631 873.78,-462.584 873.393,-469.573"/>
<text text-anchor="middle" x="716" y="-486.105" font-family="Times,serif" font-size="14.00">dsw:toTaxon</text>
</g>
<!-- Rhttp://www.ncbi.nlm.nih.gov/taxonomy&#45;&gt;L200: OK -->
<g id="edge64" class="edge"><title>Rhttp://www.ncbi.nlm.nih.gov/taxonomy&#45;&gt;L200: OK</title>
<path fill="none" stroke="black" d="M1040.52,-431.095C1057.3,-434.657 1074.32,-439.123 1090,-444.705 1098.62,-447.775 1099.54,-451.203 1108,-454.705 1155.83,-474.517 1169.28,-476.34 1220,-486.705 1290.96,-501.206 1374.86,-510.006 1424.35,-514.355"/>
<polygon fill="black" stroke="black" points="1424.11,-517.847 1434.37,-515.216 1424.71,-510.873 1424.11,-517.847"/>
<text text-anchor="middle" x="1155" y="-484.105" font-family="Times,serif" font-size="14.00">tnrs:sourceStatus</text>
</g>
<!-- Rhttp://www.ncbi.nlm.nih.gov/taxonomy&#45;&gt;Rtnrs:ResolutionSource -->
<g id="edge70" class="edge"><title>Rhttp://www.ncbi.nlm.nih.gov/taxonomy&#45;&gt;Rtnrs:ResolutionSource</title>
<path fill="none" stroke="black" d="M1063.33,-428.12C1073.01,-432.352 1082.08,-437.782 1090,-444.705 1109.68,-461.912 1090.11,-481.644 1108,-500.705 1108.29,-501.01 1219.6,-544.6 1220,-544.705 1269.94,-557.754 1326.95,-566.024 1373.61,-571.135"/>
<polygon fill="black" stroke="black" points="1373.39,-574.632 1383.71,-572.21 1374.13,-567.671 1373.39,-574.632"/>
<text text-anchor="middle" x="1155" y="-538.105" font-family="Times,serif" font-size="14.00">rdf:type</text>
</g>
<!-- L3 -->
<g id="node57" class="node"><title>L3</title>
<polygon fill="none" stroke="black" points="1440,-441.705 1440,-477.705 1494,-477.705 1494,-441.705 1440,-441.705"/>
<text text-anchor="middle" x="1467" y="-454.105" font-family="Times,serif" font-size="14.00">3</text>
</g>
<!-- Rhttp://www.ncbi.nlm.nih.gov/taxonomy&#45;&gt;L3 -->
<g id="edge62" class="edge"><title>Rhttp://www.ncbi.nlm.nih.gov/taxonomy&#45;&gt;L3</title>
<path fill="none" stroke="black" d="M1064.8,-427.712C1183.7,-437.171 1354.7,-450.773 1429.54,-456.726"/>
<polygon fill="black" stroke="black" points="1429.62,-460.243 1439.86,-457.547 1430.17,-453.265 1429.62,-460.243"/>
<text text-anchor="middle" x="1155" y="-438.105" font-family="Times,serif" font-size="14.00">tnrs:hasRank</text>
</g>
<!-- LNCBI Taxonomy -->
<g id="node60" class="node"><title>LNCBI Taxonomy</title>
<polygon fill="none" stroke="black" points="1409.5,-387.705 1409.5,-423.705 1524.5,-423.705 1524.5,-387.705 1409.5,-387.705"/>
<text text-anchor="middle" x="1467" y="-400.105" font-family="Times,serif" font-size="14.00">NCBI Taxonomy</text>
</g>
<!-- Rhttp://www.ncbi.nlm.nih.gov/taxonomy&#45;&gt;LNCBI Taxonomy -->
<g id="edge66" class="edge"><title>Rhttp://www.ncbi.nlm.nih.gov/taxonomy&#45;&gt;LNCBI Taxonomy</title>
<path fill="none" stroke="black" d="M1087.48,-414.331C1189.8,-412.006 1320.95,-409.025 1399.23,-407.246"/>
<polygon fill="black" stroke="black" points="1399.53,-410.74 1409.45,-407.013 1399.37,-403.742 1399.53,-410.74"/>
<text text-anchor="middle" x="1155" y="-415.105" font-family="Times,serif" font-size="14.00">dc:description</text>
</g>
<!-- LNCBI -->
<g id="node62" class="node"><title>LNCBI</title>
<polygon fill="none" stroke="black" points="1440,-333.705 1440,-369.705 1494,-369.705 1494,-333.705 1440,-333.705"/>
<text text-anchor="middle" x="1467" y="-346.105" font-family="Times,serif" font-size="14.00">NCBI</text>
</g>
<!-- Rhttp://www.ncbi.nlm.nih.gov/taxonomy&#45;&gt;LNCBI -->
<g id="edge68" class="edge"><title>Rhttp://www.ncbi.nlm.nih.gov/taxonomy&#45;&gt;LNCBI</title>
<path fill="none" stroke="black" d="M1035.95,-403.803C1059.52,-400.46 1084.66,-396.925 1108,-393.705 1157.75,-386.841 1170.15,-384.768 1220,-378.705 1294.4,-369.658 1381.59,-360.454 1429.93,-355.474"/>
<polygon fill="black" stroke="black" points="1430.34,-358.951 1439.93,-354.448 1429.62,-351.988 1430.34,-358.951"/>
<text text-anchor="middle" x="1155" y="-395.105" font-family="Times,serif" font-size="14.00">dc:title</text>
</g>
<!-- B_:genid3 -->
<g id="node25" class="node"><title>B_:genid3</title>
<ellipse fill="none" stroke="green" cx="263" cy="-617.705" rx="18" ry="18"/>
</g>
<!-- B_:genid3&#45;&gt;B_:genid1 -->
<g id="edge28" class="edge"><title>B_:genid3&#45;&gt;B_:genid1</title>
<path fill="none" stroke="black" d="M270.543,-634.056C285.302,-664.472 320.729,-730.239 368,-769.705 418.008,-811.457 491.574,-837.001 530.883,-848.496"/>
<polygon fill="black" stroke="black" points="529.983,-851.879 540.559,-851.243 531.895,-845.145 529.983,-851.879"/>
<text text-anchor="middle" x="411" y="-820.105" font-family="Times,serif" font-size="14.00">tnrs:matches</text>
</g>
<!-- B_:genid3&#45;&gt;B_:genid2 -->
<g id="edge30" class="edge"><title>B_:genid3&#45;&gt;B_:genid2</title>
<path fill="none" stroke="black" d="M280.57,-613.417C329.95,-601.365 470.264,-567.119 530.25,-552.478"/>
<polygon fill="black" stroke="black" points="531.264,-555.834 540.149,-550.062 529.604,-549.033 531.264,-555.834"/>
<text text-anchor="middle" x="411" y="-591.105" font-family="Times,serif" font-size="14.00">tnrs:matches</text>
</g>
<!-- B_:genid3&#45;&gt;LPanthera tigris -->
<g id="edge32" class="edge"><title>B_:genid3&#45;&gt;LPanthera tigris</title>
<path fill="none" stroke="black" d="M281.285,-618.762C337.854,-621.971 515.046,-631.576 662,-634.705 709.989,-635.727 727.279,-656.589 770,-634.705 782.186,-628.463 776.413,-617 788,-609.705 815.014,-592.699 849.836,-585.699 879.231,-583.063"/>
<polygon fill="black" stroke="black" points="879.67,-586.54 889.381,-582.304 879.147,-579.56 879.67,-586.54"/>
<text text-anchor="middle" x="558" y="-635.105" font-family="Times,serif" font-size="14.00">tnrs:submittedName</text>
</g>
<!-- B_:genid3&#45;&gt;L2 -->
<g id="edge26" class="edge"><title>B_:genid3&#45;&gt;L2</title>
<path fill="none" stroke="black" d="M279.75,-624.315C333.93,-645.311 509.745,-710.476 662,-733.705 954.795,-778.377 1314.37,-760.062 1429.61,-752.423"/>
<polygon fill="black" stroke="black" points="1429.94,-755.909 1439.68,-751.741 1429.46,-748.925 1429.94,-755.909"/>
<text text-anchor="middle" x="716" y="-747.105" font-family="Times,serif" font-size="14.00">tnrs:matchCount</text>
</g>
<!-- Rrequest -->
<g id="node32" class="node"><title>Rrequest</title>
<ellipse fill="none" stroke="blue" cx="558" cy="-444.705" rx="36.0055" ry="18"/>
<text text-anchor="middle" x="558" y="-439.105" font-family="Times,serif" font-size="14.00">request</text>
</g>
<!-- B_:genid3&#45;&gt;Rrequest -->
<g id="edge34" class="edge"><title>B_:genid3&#45;&gt;Rrequest</title>
<path fill="none" stroke="black" d="M280.973,-616.255C300.086,-613.853 330.23,-607.494 350,-590.705 363.635,-579.126 355.743,-567.735 368,-554.705 411.126,-508.859 477.674,-476.388 519.482,-459.114"/>
<polygon fill="black" stroke="black" points="520.82,-462.348 528.779,-455.355 518.196,-455.859 520.82,-462.348"/>
<text text-anchor="middle" x="411" y="-556.105" font-family="Times,serif" font-size="14.00">dcterms:source</text>
</g>
<!-- Rtnrs:NameResolution -->
<g id="node34" class="node"><title>Rtnrs:NameResolution</title>
<ellipse fill="none" stroke="blue" cx="558" cy="-390.705" rx="84.7776" ry="18"/>
<text text-anchor="middle" x="558" y="-385.105" font-family="Times,serif" font-size="14.00">tnrs:NameResolution</text>
</g>
<!-- B_:genid3&#45;&gt;Rtnrs:NameResolution -->
<g id="edge36" class="edge"><title>B_:genid3&#45;&gt;Rtnrs:NameResolution</title>
<path fill="none" stroke="black" d="M281.348,-617.419C301.378,-616.049 332.875,-610.604 350,-590.705 384.606,-550.495 337.268,-515.949 368,-472.705 394.052,-436.047 440.056,-415.633 480.27,-404.342"/>
<polygon fill="black" stroke="black" points="481.32,-407.684 490.084,-401.731 479.521,-400.919 481.32,-407.684"/>
<text text-anchor="middle" x="411" y="-474.105" font-family="Times,serif" font-size="14.00">rdf:type</text>
</g>
<!-- Rrequest&#45;&gt;Rhttp://tnrs.iplantcollaborative.org/ -->
<g id="edge46" class="edge"><title>Rrequest&#45;&gt;Rhttp://tnrs.iplantcollaborative.org/</title>
<path fill="none" stroke="black" d="M581.225,-458.83C600.843,-471.956 628.199,-493.275 644,-518.705 660.954,-545.99 638.394,-566.919 662,-588.705 701.425,-625.092 758.063,-639.081 809.864,-643.198"/>
<polygon fill="black" stroke="black" points="809.94,-646.711 820.153,-643.893 810.412,-639.726 809.94,-646.711"/>
<text text-anchor="middle" x="716" y="-639.105" font-family="Times,serif" font-size="14.00">tnrs:usedSource</text>
</g>
<!-- Rrequest&#45;&gt;Rhttp://www.ncbi.nlm.nih.gov/taxonomy -->
<g id="edge48" class="edge"><title>Rrequest&#45;&gt;Rhttp://www.ncbi.nlm.nih.gov/taxonomy</title>
<path fill="none" stroke="black" d="M591.957,-438.26C608.512,-434.099 628.205,-427.571 644,-417.705 653.866,-411.543 651.314,-403.302 662,-398.705 693.326,-385.231 774.637,-392.455 841.113,-401.613"/>
<polygon fill="black" stroke="black" points="840.834,-405.108 851.224,-403.036 841.81,-398.177 840.834,-405.108"/>
<text text-anchor="middle" x="716" y="-400.105" font-family="Times,serif" font-size="14.00">tnrs:usedSource</text>
</g>
<!-- LMon Jun 11 20:25:16 2012 -->
<g id="node42" class="node"><title>LMon Jun 11 20:25:16 2012</title>
<polygon fill="none" stroke="black" points="855,-342.705 855,-378.705 1023,-378.705 1023,-342.705 855,-342.705"/>
<text text-anchor="middle" x="939" y="-355.105" font-family="Times,serif" font-size="14.00">Mon Jun 11 20:25:16 2012</text>
</g>
<!-- Rrequest&#45;&gt;LMon Jun 11 20:25:16 2012 -->
<g id="edge44" class="edge"><title>Rrequest&#45;&gt;LMon Jun 11 20:25:16 2012</title>
<path fill="none" stroke="black" d="M593.363,-440.747C610.467,-437.198 630.225,-430.468 644,-417.705 659.801,-403.066 644.428,-385.165 662,-372.705 715.729,-334.607 791.159,-333.808 849.742,-341.32"/>
<polygon fill="black" stroke="black" points="849.347,-344.798 859.732,-342.701 850.306,-337.864 849.347,-344.798"/>
<text text-anchor="middle" x="716" y="-374.105" font-family="Times,serif" font-size="14.00">tnrs:submitDate</text>
</g>
<!-- Rtnrs:ResolutionRequest -->
<g id="node46" class="node"><title>Rtnrs:ResolutionRequest</title>
<ellipse fill="none" stroke="blue" cx="939" cy="-306.705" rx="92.8564" ry="18"/>
<text text-anchor="middle" x="939" y="-301.105" font-family="Times,serif" font-size="14.00">tnrs:ResolutionRequest</text>
</g>
<!-- Rrequest&#45;&gt;Rtnrs:ResolutionRequest -->
<g id="edge50" class="edge"><title>Rrequest&#45;&gt;Rtnrs:ResolutionRequest</title>
<path fill="none" stroke="black" d="M593.614,-442.003C611.214,-438.797 631.339,-431.995 644,-417.705 673.078,-384.887 629.004,-349.582 662,-320.705 720.008,-269.94 813.789,-277.192 875.917,-289.751"/>
<polygon fill="black" stroke="black" points="875.478,-293.236 885.987,-291.889 876.932,-286.388 875.478,-293.236"/>
<text text-anchor="middle" x="716" y="-322.105" font-family="Times,serif" font-size="14.00">rdf:type</text>
</g>
<!-- Rotu5 -->
<g id="node35" class="node"><title>Rotu5</title>
<ellipse fill="none" stroke="blue" cx="27" cy="-563.705" rx="27" ry="18"/>
<text text-anchor="middle" x="27" y="-558.105" font-family="Times,serif" font-size="14.00">otu5</text>
</g>
<!-- Rotu5&#45;&gt;B_:genid3 -->
<g id="edge38" class="edge"><title>Rotu5&#45;&gt;B_:genid3</title>
<path fill="none" stroke="black" d="M49.5912,-573.737C56.6655,-576.607 64.5676,-579.541 72,-581.705 128.762,-598.237 197.293,-609.003 234.896,-614.151"/>
<polygon fill="black" stroke="black" points="234.711,-617.658 245.086,-615.512 235.638,-610.719 234.711,-617.658"/>
<text text-anchor="middle" x="115" y="-602.105" font-family="Times,serif" font-size="14.00">tnrs:resolvesAs</text>
</g>
<!-- Robo:CDAO_0000138 -->
<g id="node38" class="node"><title>Robo:CDAO_0000138</title>
<ellipse fill="none" stroke="blue" cx="263" cy="-563.705" rx="87.1713" ry="18"/>
<text text-anchor="middle" x="263" y="-558.105" font-family="Times,serif" font-size="14.00">obo:CDAO_0000138</text>
</g>
<!-- Rotu5&#45;&gt;Robo:CDAO_0000138 -->
<g id="edge40" class="edge"><title>Rotu5&#45;&gt;Robo:CDAO_0000138</title>
<path fill="none" stroke="black" d="M54.0722,-563.705C81.3619,-563.705 125.115,-563.705 165.547,-563.705"/>
<polygon fill="black" stroke="black" points="165.743,-567.206 175.743,-563.705 165.743,-560.206 165.743,-567.206"/>
<text text-anchor="middle" x="115" y="-565.105" font-family="Times,serif" font-size="14.00">rdf:type</text>
</g>
<!-- LPanthera tigris HQ263408 -->
<g id="node40" class="node"><title>LPanthera tigris HQ263408</title>
<polygon fill="none" stroke="black" points="179.5,-491.705 179.5,-527.705 346.5,-527.705 346.5,-491.705 179.5,-491.705"/>
<text text-anchor="middle" x="263" y="-504.105" font-family="Times,serif" font-size="14.00">Panthera tigris HQ263408</text>
</g>
<!-- Rotu5&#45;&gt;LPanthera tigris HQ263408 -->
<g id="edge42" class="edge"><title>Rotu5&#45;&gt;LPanthera tigris HQ263408</title>
<path fill="none" stroke="black" d="M49.5912,-553.674C56.6655,-550.804 64.5676,-547.87 72,-545.705 103.28,-536.595 138.134,-529.236 169.417,-523.603"/>
<polygon fill="black" stroke="black" points="170.199,-527.019 179.439,-521.835 168.983,-520.126 170.199,-527.019"/>
<text text-anchor="middle" x="115" y="-547.105" font-family="Times,serif" font-size="14.00">rdfs:label</text>
</g>
</g>
</svg>
